<svg xmlns="http://www.w3.org/2000/svg" viewBox="0 0 44.563 44.563"><title>refresh-white</title><path d="M44.063,15.521h-12.1a.5.5,0,0,1,0-1h11.6V2.92a.5.5,0,0,1,1,0v12.1A.5.5,0,0,1,44.063,15.521Z" fill="#fff"/><path d="M44.063,15.521a.5.5,0,0,1-.472-.333C40.688,6.966,31.726,1,22.282,1S3.875,6.966.972,15.187a.5.5,0,1,1-.943-.333C3.069,6.247,12.427,0,22.282,0S41.494,6.247,44.534,14.854a.5.5,0,0,1-.3.638A.513.513,0,0,1,44.063,15.521Z" fill="#fff"/><path d="M.5,42.142a.5.5,0,0,1-.5-.5v-12.1a.5.5,0,0,1,.5-.5H12.6a.5.5,0,1,1,0,1H1v11.6A.5.5,0,0,1,.5,42.142Z" fill="#fff"/><path d="M22.282,44.563c-9.856,0-19.215-6.247-22.253-14.854a.5.5,0,0,1,.943-.333c2.9,8.221,11.863,14.188,21.31,14.188S40.69,37.6,43.591,29.375a.5.5,0,0,1,.943.333C41.5,38.315,32.138,44.563,22.282,44.563Z" fill="#fff"/></svg>